<svg width="74" height="74" viewBox="0 0 74 74" fill="none" xmlns="http://www.w3.org/2000/svg">
<g clip-path="url(#clip0_1_664)">
<path d="M37 74C57.4345 74 74 57.4345 74 37C74 16.5655 57.4345 0 37 0C16.5655 0 0 16.5655 0 37C0 57.4345 16.5655 74 37 74Z" fill="#FA6E4F"/>
<path d="M27.5458 53.6908L46.571 72.7161C62.3281 68.5142 74 54.1577 74 37C74 36.6498 74 36.2997 74 35.9495L59.06 22.1766L27.5458 53.6908Z" fill="#DB6045"/>
<path d="M37.9338 45.2871C39.5679 46.9211 39.5679 49.7224 37.9338 51.3565L34.549 54.7413C32.9149 56.3754 30.1136 56.3754 28.4796 54.7413L13.6562 39.8013C12.0221 38.1672 12.0221 35.3659 13.6562 33.7319L17.0411 30.347C18.6751 28.7129 21.4764 28.7129 23.1105 30.347L37.9338 45.2871Z" fill="white"/>
<path d="M52.8825 19.3319C54.5166 17.6979 57.3179 17.6979 58.9519 19.3319L62.3368 22.7168C63.9709 24.3509 63.9709 27.1521 62.3368 28.7862L36.6586 54.3477C35.0245 55.9818 32.2232 55.9818 30.5892 54.3477L27.2043 50.9629C25.5702 49.3288 25.5702 46.5275 27.2043 44.8935L52.8825 19.3319Z" fill="white"/>
</g>
<defs>
<clipPath id="clip0_1_664">
<rect width="74" height="74" fill="white"/>
</clipPath>
</defs>
</svg>
