<svg width="20" height="20" viewBox="0 0 20 20" fill="none" xmlns="http://www.w3.org/2000/svg">
<path d="M19.1212 8.7329L17.125 6.86972V2.08409C17.125 1.64709 16.7699 1.29203 16.3329 1.29203H13.9579C13.5209 1.29203 13.1659 1.64709 13.1659 2.08409V3.16709L10.5391 0.713714C10.2339 0.429901 9.7625 0.429901 9.4585 0.713714L0.857437 8.7519C0.627062 8.98228 0.5 9.28509 0.5 9.60453C0.5 10.2588 1.03319 10.792 1.6875 10.792H2.875V17.5216C2.875 18.6117 3.76325 19.5 4.85456 19.5H15.1466C16.2367 19.5 17.125 18.6117 17.125 17.5204V10.7908H18.3125C18.9668 10.7908 19.5 10.2577 19.5 9.60334C19.5 9.28509 19.3729 8.98228 19.1212 8.7329V8.7329ZM14.1562 12.1767H13.1065C13.0246 12.6089 12.8571 13.0103 12.6173 13.3618L13.3582 14.1028C13.5898 14.3343 13.5898 14.7108 13.3582 14.9423C13.1267 15.1739 12.7503 15.1739 12.5187 14.9423L11.7777 14.2013C11.4274 14.44 11.0248 14.6075 10.5938 14.6906V15.7403C10.5938 16.0681 10.3277 16.3341 10 16.3341C9.67225 16.3341 9.40625 16.0681 9.40625 15.7403V14.6906C8.974 14.6087 8.57263 14.4412 8.22231 14.2013L7.48131 14.9423C7.24975 15.1739 6.87331 15.1739 6.64175 14.9423C6.41019 14.7108 6.41019 14.3343 6.64175 14.1028L7.38275 13.3618C7.14406 13.0115 6.97662 12.6089 6.8935 12.1767H5.84375C5.516 12.1767 5.25 11.9107 5.25 11.5829C5.25 11.2552 5.516 10.9892 5.84375 10.9892H6.8935C6.97544 10.5569 7.14287 10.1555 7.38275 9.80403L6.64175 9.06303C6.41019 8.83147 6.41019 8.45503 6.64175 8.22346C6.87331 7.9919 7.24975 7.9919 7.48131 8.22346L8.22231 8.96447C8.57263 8.72578 8.97519 8.55834 9.40625 8.47521V7.42547C9.40625 7.09772 9.67225 6.83171 10 6.83171C10.3277 6.83171 10.5938 7.09772 10.5938 7.42547V8.47521C11.026 8.55715 11.4274 8.72459 11.7777 8.96447L12.5187 8.22346C12.7503 7.9919 13.1267 7.9919 13.3582 8.22346C13.5898 8.45503 13.5898 8.83147 13.3582 9.06303L12.6173 9.80403C12.8559 10.1543 13.0234 10.5569 13.1065 10.9892H14.1562C14.484 10.9892 14.75 11.2552 14.75 11.5829C14.75 11.9107 14.484 12.1767 14.1562 12.1767Z" fill="#2AD7AA"/>
</svg>
