<svg width="74" height="74" viewBox="0 0 74 74" fill="none" xmlns="http://www.w3.org/2000/svg">
<path d="M74 25.1839L37 48.6968L0 25.1839L37 1.0742L74 25.1839Z" fill="#4C5254"/>
<path d="M37 1.0742L74 25.1839L37 48.6968" fill="#2F423F"/>
<path d="M15.7549 8.47421C14.0839 8.47421 11.9355 10.3839 11.9355 12.0549V70.0613C11.9355 71.7323 14.0839 72.9258 15.7549 72.9258H58.2452C59.9162 72.9258 60.871 71.7323 60.871 70.0613V21.4839L47.742 8.47421H15.7549Z" fill="#EAEAEA"/>
<path d="M60.871 70.5387V21.4839L47.742 8.47421H15.7549C14.0839 8.47421 11.9355 10.3839 11.9355 12.0549" fill="#D6D6D6"/>
<path d="M60.8708 32.1064V21.6032L54.4257 15.1581L49.1741 20.6484L60.8708 32.1064Z" fill="#A8A8A8"/>
<path d="M47.7419 18.3807V8.47421L60.871 21.6032H50.8452C49.0548 21.6032 47.7419 20.0516 47.7419 18.3807Z" fill="white"/>
<path d="M40.7001 20.4097C40.7001 21.1258 40.1034 21.6032 39.5066 21.6032H21.2453C20.5292 21.6032 20.0518 21.1258 20.0518 20.4097C20.0518 19.6935 20.6485 19.2161 21.2453 19.2161H39.3872C40.1034 19.2161 40.7001 19.6935 40.7001 20.4097Z" fill="#A8A8A8"/>
<path d="M53.9485 29.958C53.9485 30.6742 53.3518 31.1516 52.755 31.1516H21.2453C20.5292 31.1516 20.0518 30.6742 20.0518 29.958C20.0518 29.2419 20.6485 28.7645 21.2453 28.7645H52.6356C53.3518 28.7645 53.9485 29.2419 53.9485 29.958Z" fill="#A8A8A8"/>
<path d="M53.9485 40.7C53.9485 41.4162 53.3518 41.8936 52.755 41.8936H21.2453C20.5292 41.8936 20.0518 41.4162 20.0518 40.7C20.0518 39.9839 20.6485 39.5065 21.2453 39.5065H52.6356C53.3518 39.5065 53.9485 39.9839 53.9485 40.7Z" fill="#A8A8A8"/>
<path d="M74 25.1839L37 48.8161L0 25.1839V72.9258H74V25.1839Z" fill="#6965A8"/>
<path d="M37 49.0548V48.6968L0 25.1839V72.9258H0.23871H0L37 49.0548Z" fill="#9090DD"/>
<path d="M74 72.9258L37 49.0548L0 72.9258H0.23871H73.7613H74Z" fill="#4C4C8C"/>
</svg>
