<svg width="22" height="22" viewBox="0 0 22 22" fill="none" xmlns="http://www.w3.org/2000/svg">
<path d="M11 5.49998C10.7569 5.49998 10.5238 5.59656 10.3519 5.76847C10.18 5.94037 10.0834 6.17353 10.0834 6.41665V15.5833C10.0834 15.8264 10.18 16.0596 10.3519 16.2315C10.5238 16.4034 10.7569 16.5 11 16.5C11.2432 16.5 11.4763 16.4034 11.6482 16.2315C11.8201 16.0596 11.9167 15.8264 11.9167 15.5833V6.41665C11.9167 6.17353 11.8201 5.94037 11.6482 5.76847C11.4763 5.59656 11.2432 5.49998 11 5.49998ZM6.41671 11C6.17359 11 5.94043 11.0966 5.76853 11.2685C5.59662 11.4404 5.50004 11.6735 5.50004 11.9166V15.5833C5.50004 15.8264 5.59662 16.0596 5.76853 16.2315C5.94043 16.4034 6.17359 16.5 6.41671 16.5C6.65982 16.5 6.89298 16.4034 7.06489 16.2315C7.2368 16.0596 7.33337 15.8264 7.33337 15.5833V11.9166C7.33337 11.6735 7.2368 11.4404 7.06489 11.2685C6.89298 11.0966 6.65982 11 6.41671 11ZM15.5834 9.16665C15.3403 9.16665 15.1071 9.26322 14.9352 9.43513C14.7633 9.60704 14.6667 9.8402 14.6667 10.0833V15.5833C14.6667 15.8264 14.7633 16.0596 14.9352 16.2315C15.1071 16.4034 15.3403 16.5 15.5834 16.5C15.8265 16.5 16.0596 16.4034 16.2316 16.2315C16.4035 16.0596 16.5 15.8264 16.5 15.5833V10.0833C16.5 9.8402 16.4035 9.60704 16.2316 9.43513C16.0596 9.26322 15.8265 9.16665 15.5834 9.16665ZM17.4167 1.83331H4.58337C3.85403 1.83331 3.15456 2.12304 2.63883 2.63877C2.12311 3.15449 1.83337 3.85397 1.83337 4.58331V17.4166C1.83337 18.146 2.12311 18.8455 2.63883 19.3612C3.15456 19.8769 3.85403 20.1666 4.58337 20.1666H17.4167C18.1461 20.1666 18.8455 19.8769 19.3613 19.3612C19.877 18.8455 20.1667 18.146 20.1667 17.4166V4.58331C20.1667 3.85397 19.877 3.15449 19.3613 2.63877C18.8455 2.12304 18.1461 1.83331 17.4167 1.83331ZM18.3334 17.4166C18.3334 17.6598 18.2368 17.8929 18.0649 18.0648C17.893 18.2367 17.6598 18.3333 17.4167 18.3333H4.58337C4.34026 18.3333 4.1071 18.2367 3.93519 18.0648C3.76328 17.8929 3.66671 17.6598 3.66671 17.4166V4.58331C3.66671 4.3402 3.76328 4.10704 3.93519 3.93513C4.1071 3.76322 4.34026 3.66665 4.58337 3.66665H17.4167C17.6598 3.66665 17.893 3.76322 18.0649 3.93513C18.2368 4.10704 18.3334 4.3402 18.3334 4.58331V17.4166Z" fill="white"/>
</svg>
