<svg width="36" height="40" viewBox="0 0 36 40" fill="none" xmlns="http://www.w3.org/2000/svg">
<g clip-path="url(#clip0_1_1148)">
<path d="M35.1693 14.8467C34.9995 14.6188 34.746 14.4857 34.48 14.4857H31.0993C30.265 12.0651 29.1781 9.69348 27.9427 8.79825C23.669 5.70552 12.3331 5.70552 8.05941 8.79825C6.82309 9.69446 5.74065 12.069 4.90192 14.4857H1.52118C1.25257 14.4857 0.99997 14.6188 0.831867 14.8467C0.662875 15.0737 0.595278 15.3741 0.650423 15.6627L1.15117 18.3318C1.23656 18.7868 1.60123 19.1116 2.02193 19.1116H3.02343C2.05662 20.3385 1.58789 21.8834 1.58166 23.4293C1.57543 25.3391 2.2345 27.065 3.43969 28.2861C3.45303 28.2988 3.46637 28.3076 3.47882 28.3203V32.0549C3.47882 32.864 4.07652 33.5225 4.81297 33.5225H7.93133C8.66778 33.5225 9.26548 32.864 9.26548 32.0549V30.554H26.7348V32.0549C26.7348 32.864 27.3325 33.5225 28.069 33.5225H31.1874C31.922 33.5225 32.5215 32.864 32.5215 32.0549V28.3937C33.8005 27.1051 34.4115 25.3323 34.4196 23.5623C34.4249 21.9636 33.9348 20.362 32.9111 19.1096H33.9793C34.4018 19.1096 34.7664 18.7848 34.85 18.3289L35.3517 15.6608C35.4033 15.3741 35.3383 15.0757 35.1693 14.8467ZM9.5243 11.2491C12.9308 8.78259 23.0695 8.78259 26.4742 11.2491C27.136 11.7266 27.9872 13.657 28.7672 16.0208H7.23312C8.01138 13.658 8.86256 11.7286 9.5243 11.2491ZM5.5343 23.7972C5.5343 22.2024 6.71013 20.9109 8.15902 20.9109C9.60969 20.9109 10.7837 22.2024 10.7837 23.7972C10.7837 25.392 9.60969 26.6844 8.15902 26.6844C6.71013 26.6844 5.5343 25.392 5.5343 23.7972ZM27.876 26.6844C26.4271 26.6844 25.2513 25.392 25.2513 23.7972C25.2513 22.2024 26.4271 20.9109 27.876 20.9109C29.3267 20.9109 30.5007 22.2024 30.5007 23.7972C30.5007 25.392 29.3249 26.6844 27.876 26.6844Z" fill="white"/>
</g>
<defs>
<clipPath id="clip0_1_1148">
<rect width="34.7368" height="38.2105" fill="white" transform="translate(0.631592 0.894714)"/>
</clipPath>
</defs>
</svg>
